<svg id="Layer_1" data-name="Layer 1" xmlns="http://www.w3.org/2000/svg" viewBox="0 0 557.82 331.54"><defs><style>.cls-1{fill:#fff;}</style></defs><path class="cls-1" d="M384.56,240.82c-7,4.94-20.37,15.83-19.07,25.25.27,1.95,1.61,3.58,3.8,3.28C376.79,268.32,382.44,247.08,384.56,240.82Z"/><path class="cls-1" d="M403.72,170.12l-.55.08c-8.68,1.91-21.41,32.63-20.39,40.09.22,1.6,1.05,2.21,2.33,2,8.41-1.16,23.69-30.95,22.62-38.77C407.39,171.07,406.09,169.8,403.72,170.12Z"/><path class="cls-1" d="M495.85,96.53v0c-16.58-13-38.47-20.09-60.13-24C311.15,50.2,196.61,158.53,205,149.17c29.5-32.77,79.76-82.1,181.57-91,10.15-.88,53.44-4,99.14,12.63C471,49.73,439.25,27,384.5,8.82c-118.43-39.41-206.06,61.73-269,135.39-63.77,74.63-163.82,40-88.72,106.28,104.13,92,230.92,111.41,339.49,28.46-7.78.67-16.81-2-18-10.7-2.29-16.7,27.24-30.89,39.75-37.5L392.23,218c-6.13,5.55-13.89,12.77-22.67,14-8.23,1.13-12.64-3.87-13.69-11.51a20.4,20.4,0,0,1,.49-8.34c-5.83,8.56-14.27,18.44-19,21.38a25,25,0,0,1-11.28,4.64c-6.59.9-11.12-2.28-12-8.67-1.44-10.48,9.95-32,9.53-35-.12-.89-.53-1.19-1.27-1.09-4.93.68-25.33,33.89-28.78,40s-7.53,10.26-13.93,11.15c-2.93.4-7.44.11-8-3.8a10.18,10.18,0,0,1,.74-4.08c4.48-12.2,9.15-24.24,13.44-36.42l-.8-.43c-3.68,5.75-8,13.59-13.3,21.2a3.93,3.93,0,0,1-2.78,1.46,3.34,3.34,0,0,1-3.78-3.1,6,6,0,0,1,1-3.75c4.42-7.13,8.73-13.69,13-20.62,4.08-6.89,8-13.94,12.48-20.36,1.37-2.18,3-3.85,5.75-4.23,5.67-.78,11.62,7.27,12.28,12.07.76,5.51-2.59,12.3-4.68,17.48,6.77-9.08,24.76-32.73,36.46-34.34a7.93,7.93,0,0,1,9.33,6.86c.66,4.8-2.06,10.78-3.69,15.17-3.06,8.93-6.3,17.88-7.84,27a7.2,7.2,0,0,0-.1,2c.12.89.56,1.37,1.29,1.27,3.26-.45,9.64-10.3,13-15.59,5-8.12,12.47-18.05,14.61-20.79,8.08-10.34,17.69-21.8,31.77-23.74,4.57-.63,9.68-.06,12.3,4.1,1.5-4,3.82-15.55,8.76-16.23,5.85-.8,12,7.58,12.7,12.37a20.12,20.12,0,0,1-1.23,8.68c-4.63,15.12-9.88,29.78-15.06,45a72.53,72.53,0,0,0,12.12-12.16,118.21,118.21,0,0,0,6.66-9.79,4.87,4.87,0,0,1,3.42-2.28l.55-.08a3,3,0,0,1,3.36,2.8,5.84,5.84,0,0,1-.92,4.11,112.48,112.48,0,0,1-9.55,13.26A79.3,79.3,0,0,1,413,224.05c-2.26,6.22-4.69,13-7.62,19.62,31.43-33,60.72-75.71,86.72-129.1,19.35,3.28,45.11,53.73,57.67,47.59C574.47,150.09,538.28,118.08,495.85,96.53Z"/></svg>